<mxfile host="app.diagrams.net" agent="Mozilla/5.0 (Linux; Android 10; K) AppleWebKit/537.36 (KHTML, like Gecko) Chrome/128.0.0.0 Safari/537.36" version="24.7.15">
  <diagram name="Page-1" id="IiT2s1_sv5NDfSnMArrv">
    <mxGraphModel>
      <root>
        <mxCell id="0" />
        <mxCell id="1" parent="0" />
        <mxCell id="2" value="User" style="shape=table;startSize=25;container=1;collapsible=0;childLayout=tableLayout;fixedRows=1;rowLines=1;fontStyle=1;align=center;resizeLast=1;" vertex="1" parent="1">
          <mxGeometry x="145" y="20" width="100" height="90" as="geometry" />
        </mxCell>
        <mxCell id="3" style="shape=tableRow;horizontal=0;startSize=0;swimlaneHead=0;swimlaneBody=0;fillColor=none;collapsible=0;dropTarget=0;points=[[0,0.5],[1,0.5]];portConstraint=eastwest;top=0;left=0;right=0;bottom=0;" vertex="1" parent="2">
          <mxGeometry y="22" width="100" height="22" as="geometry" />
        </mxCell>
        <mxCell id="4" value="string" style="shape=partialRectangle;connectable=0;fillColor=none;top=0;left=0;bottom=0;right=0;align=left;spacingLeft=2;overflow=hidden;fontSize=11;" vertex="1" parent="3">
          <mxGeometry width="36" height="22" as="geometry" />
        </mxCell>
        <mxCell id="5" value="userId" style="shape=partialRectangle;connectable=0;fillColor=none;top=0;left=0;bottom=0;right=0;align=left;spacingLeft=2;overflow=hidden;fontSize=11;" vertex="1" parent="3">
          <mxGeometry width="64" height="22" as="geometry" />
        </mxCell>
        <mxCell id="6" style="shape=tableRow;horizontal=0;startSize=0;swimlaneHead=0;swimlaneBody=0;fillColor=none;collapsible=0;dropTarget=0;points=[[0,0.5],[1,0.5]];portConstraint=eastwest;top=0;left=0;right=0;bottom=0;" vertex="1" parent="2">
          <mxGeometry y="43" width="100" height="22" as="geometry" />
        </mxCell>
        <mxCell id="7" value="string" style="shape=partialRectangle;connectable=0;fillColor=none;top=0;left=0;bottom=0;right=0;align=left;spacingLeft=2;overflow=hidden;fontSize=11;" vertex="1" parent="6">
          <mxGeometry width="36" height="22" as="geometry" />
        </mxCell>
        <mxCell id="8" value="username" style="shape=partialRectangle;connectable=0;fillColor=none;top=0;left=0;bottom=0;right=0;align=left;spacingLeft=2;overflow=hidden;fontSize=11;" vertex="1" parent="6">
          <mxGeometry width="64" height="22" as="geometry" />
        </mxCell>
        <mxCell id="9" style="shape=tableRow;horizontal=0;startSize=0;swimlaneHead=0;swimlaneBody=0;fillColor=none;collapsible=0;dropTarget=0;points=[[0,0.5],[1,0.5]];portConstraint=eastwest;top=0;left=0;right=0;bottom=0;" vertex="1" parent="2">
          <mxGeometry y="65" width="100" height="22" as="geometry" />
        </mxCell>
        <mxCell id="10" value="string" style="shape=partialRectangle;connectable=0;fillColor=none;top=0;left=0;bottom=0;right=0;align=left;spacingLeft=2;overflow=hidden;fontSize=11;" vertex="1" parent="9">
          <mxGeometry width="36" height="22" as="geometry" />
        </mxCell>
        <mxCell id="11" value="email" style="shape=partialRectangle;connectable=0;fillColor=none;top=0;left=0;bottom=0;right=0;align=left;spacingLeft=2;overflow=hidden;fontSize=11;" vertex="1" parent="9">
          <mxGeometry width="64" height="22" as="geometry" />
        </mxCell>
        <mxCell id="12" value="Role" style="shape=table;startSize=25;container=1;collapsible=0;childLayout=tableLayout;fixedRows=1;rowLines=1;fontStyle=1;align=center;resizeLast=1;" vertex="1" parent="1">
          <mxGeometry x="170" y="210" width="100" height="68" as="geometry" />
        </mxCell>
        <mxCell id="13" style="shape=tableRow;horizontal=0;startSize=0;swimlaneHead=0;swimlaneBody=0;fillColor=none;collapsible=0;dropTarget=0;points=[[0,0.5],[1,0.5]];portConstraint=eastwest;top=0;left=0;right=0;bottom=0;" vertex="1" parent="12">
          <mxGeometry y="22" width="100" height="22" as="geometry" />
        </mxCell>
        <mxCell id="14" value="string" style="shape=partialRectangle;connectable=0;fillColor=none;top=0;left=0;bottom=0;right=0;align=left;spacingLeft=2;overflow=hidden;fontSize=11;" vertex="1" parent="13">
          <mxGeometry width="36" height="22" as="geometry" />
        </mxCell>
        <mxCell id="15" value="roleId" style="shape=partialRectangle;connectable=0;fillColor=none;top=0;left=0;bottom=0;right=0;align=left;spacingLeft=2;overflow=hidden;fontSize=11;" vertex="1" parent="13">
          <mxGeometry width="64" height="22" as="geometry" />
        </mxCell>
        <mxCell id="16" style="shape=tableRow;horizontal=0;startSize=0;swimlaneHead=0;swimlaneBody=0;fillColor=none;collapsible=0;dropTarget=0;points=[[0,0.5],[1,0.5]];portConstraint=eastwest;top=0;left=0;right=0;bottom=0;" vertex="1" parent="12">
          <mxGeometry y="43" width="100" height="22" as="geometry" />
        </mxCell>
        <mxCell id="17" value="string" style="shape=partialRectangle;connectable=0;fillColor=none;top=0;left=0;bottom=0;right=0;align=left;spacingLeft=2;overflow=hidden;fontSize=11;" vertex="1" parent="16">
          <mxGeometry width="36" height="22" as="geometry" />
        </mxCell>
        <mxCell id="18" value="roleName" style="shape=partialRectangle;connectable=0;fillColor=none;top=0;left=0;bottom=0;right=0;align=left;spacingLeft=2;overflow=hidden;fontSize=11;" vertex="1" parent="16">
          <mxGeometry width="64" height="22" as="geometry" />
        </mxCell>
        <mxCell id="19" value="Category" style="shape=table;startSize=25;container=1;collapsible=0;childLayout=tableLayout;fixedRows=1;rowLines=1;fontStyle=1;align=center;resizeLast=1;" vertex="1" parent="1">
          <mxGeometry x="417" y="210" width="113" height="68" as="geometry" />
        </mxCell>
        <mxCell id="20" style="shape=tableRow;horizontal=0;startSize=0;swimlaneHead=0;swimlaneBody=0;fillColor=none;collapsible=0;dropTarget=0;points=[[0,0.5],[1,0.5]];portConstraint=eastwest;top=0;left=0;right=0;bottom=0;" vertex="1" parent="19">
          <mxGeometry y="22" width="113" height="22" as="geometry" />
        </mxCell>
        <mxCell id="21" value="string" style="shape=partialRectangle;connectable=0;fillColor=none;top=0;left=0;bottom=0;right=0;align=left;spacingLeft=2;overflow=hidden;fontSize=11;" vertex="1" parent="20">
          <mxGeometry width="36" height="22" as="geometry" />
        </mxCell>
        <mxCell id="22" value="categoryId" style="shape=partialRectangle;connectable=0;fillColor=none;top=0;left=0;bottom=0;right=0;align=left;spacingLeft=2;overflow=hidden;fontSize=11;" vertex="1" parent="20">
          <mxGeometry width="77" height="22" as="geometry" />
        </mxCell>
        <mxCell id="23" style="shape=tableRow;horizontal=0;startSize=0;swimlaneHead=0;swimlaneBody=0;fillColor=none;collapsible=0;dropTarget=0;points=[[0,0.5],[1,0.5]];portConstraint=eastwest;top=0;left=0;right=0;bottom=0;" vertex="1" parent="19">
          <mxGeometry y="43" width="113" height="22" as="geometry" />
        </mxCell>
        <mxCell id="24" value="string" style="shape=partialRectangle;connectable=0;fillColor=none;top=0;left=0;bottom=0;right=0;align=left;spacingLeft=2;overflow=hidden;fontSize=11;" vertex="1" parent="23">
          <mxGeometry width="36" height="22" as="geometry" />
        </mxCell>
        <mxCell id="25" value="categoryName" style="shape=partialRectangle;connectable=0;fillColor=none;top=0;left=0;bottom=0;right=0;align=left;spacingLeft=2;overflow=hidden;fontSize=11;" vertex="1" parent="23">
          <mxGeometry width="77" height="22" as="geometry" />
        </mxCell>
        <mxCell id="26" value="Project" style="shape=table;startSize=25;container=1;collapsible=0;childLayout=tableLayout;fixedRows=1;rowLines=1;fontStyle=1;align=center;resizeLast=1;" vertex="1" parent="1">
          <mxGeometry x="497" y="378" width="104" height="68" as="geometry" />
        </mxCell>
        <mxCell id="27" style="shape=tableRow;horizontal=0;startSize=0;swimlaneHead=0;swimlaneBody=0;fillColor=none;collapsible=0;dropTarget=0;points=[[0,0.5],[1,0.5]];portConstraint=eastwest;top=0;left=0;right=0;bottom=0;" vertex="1" parent="26">
          <mxGeometry y="22" width="104" height="22" as="geometry" />
        </mxCell>
        <mxCell id="28" value="string" style="shape=partialRectangle;connectable=0;fillColor=none;top=0;left=0;bottom=0;right=0;align=left;spacingLeft=2;overflow=hidden;fontSize=11;" vertex="1" parent="27">
          <mxGeometry width="36" height="22" as="geometry" />
        </mxCell>
        <mxCell id="29" value="projectId" style="shape=partialRectangle;connectable=0;fillColor=none;top=0;left=0;bottom=0;right=0;align=left;spacingLeft=2;overflow=hidden;fontSize=11;" vertex="1" parent="27">
          <mxGeometry width="68" height="22" as="geometry" />
        </mxCell>
        <mxCell id="30" style="shape=tableRow;horizontal=0;startSize=0;swimlaneHead=0;swimlaneBody=0;fillColor=none;collapsible=0;dropTarget=0;points=[[0,0.5],[1,0.5]];portConstraint=eastwest;top=0;left=0;right=0;bottom=0;" vertex="1" parent="26">
          <mxGeometry y="43" width="104" height="22" as="geometry" />
        </mxCell>
        <mxCell id="31" value="string" style="shape=partialRectangle;connectable=0;fillColor=none;top=0;left=0;bottom=0;right=0;align=left;spacingLeft=2;overflow=hidden;fontSize=11;" vertex="1" parent="30">
          <mxGeometry width="36" height="22" as="geometry" />
        </mxCell>
        <mxCell id="32" value="projectName" style="shape=partialRectangle;connectable=0;fillColor=none;top=0;left=0;bottom=0;right=0;align=left;spacingLeft=2;overflow=hidden;fontSize=11;" vertex="1" parent="30">
          <mxGeometry width="68" height="22" as="geometry" />
        </mxCell>
        <mxCell id="33" value="Resource" style="shape=table;startSize=25;container=1;collapsible=0;childLayout=tableLayout;fixedRows=1;rowLines=1;fontStyle=1;align=center;resizeLast=1;" vertex="1" parent="1">
          <mxGeometry x="264" y="546" width="113" height="68" as="geometry" />
        </mxCell>
        <mxCell id="34" style="shape=tableRow;horizontal=0;startSize=0;swimlaneHead=0;swimlaneBody=0;fillColor=none;collapsible=0;dropTarget=0;points=[[0,0.5],[1,0.5]];portConstraint=eastwest;top=0;left=0;right=0;bottom=0;" vertex="1" parent="33">
          <mxGeometry y="22" width="113" height="22" as="geometry" />
        </mxCell>
        <mxCell id="35" value="string" style="shape=partialRectangle;connectable=0;fillColor=none;top=0;left=0;bottom=0;right=0;align=left;spacingLeft=2;overflow=hidden;fontSize=11;" vertex="1" parent="34">
          <mxGeometry width="36" height="22" as="geometry" />
        </mxCell>
        <mxCell id="36" value="resourceId" style="shape=partialRectangle;connectable=0;fillColor=none;top=0;left=0;bottom=0;right=0;align=left;spacingLeft=2;overflow=hidden;fontSize=11;" vertex="1" parent="34">
          <mxGeometry width="77" height="22" as="geometry" />
        </mxCell>
        <mxCell id="37" style="shape=tableRow;horizontal=0;startSize=0;swimlaneHead=0;swimlaneBody=0;fillColor=none;collapsible=0;dropTarget=0;points=[[0,0.5],[1,0.5]];portConstraint=eastwest;top=0;left=0;right=0;bottom=0;" vertex="1" parent="33">
          <mxGeometry y="43" width="113" height="22" as="geometry" />
        </mxCell>
        <mxCell id="38" value="string" style="shape=partialRectangle;connectable=0;fillColor=none;top=0;left=0;bottom=0;right=0;align=left;spacingLeft=2;overflow=hidden;fontSize=11;" vertex="1" parent="37">
          <mxGeometry width="36" height="22" as="geometry" />
        </mxCell>
        <mxCell id="39" value="resourceName" style="shape=partialRectangle;connectable=0;fillColor=none;top=0;left=0;bottom=0;right=0;align=left;spacingLeft=2;overflow=hidden;fontSize=11;" vertex="1" parent="37">
          <mxGeometry width="77" height="22" as="geometry" />
        </mxCell>
        <mxCell id="40" value="Portfolio" style="shape=table;startSize=25;container=1;collapsible=0;childLayout=tableLayout;fixedRows=1;rowLines=1;fontStyle=1;align=center;resizeLast=1;" vertex="1" parent="1">
          <mxGeometry x="20" y="389" width="102" height="46" as="geometry" />
        </mxCell>
        <mxCell id="41" style="shape=tableRow;horizontal=0;startSize=0;swimlaneHead=0;swimlaneBody=0;fillColor=none;collapsible=0;dropTarget=0;points=[[0,0.5],[1,0.5]];portConstraint=eastwest;top=0;left=0;right=0;bottom=0;" vertex="1" parent="40">
          <mxGeometry y="21" width="100" height="21" as="geometry" />
        </mxCell>
        <mxCell id="42" value="string" style="shape=partialRectangle;connectable=0;fillColor=none;top=0;left=0;bottom=0;right=0;align=left;spacingLeft=2;overflow=hidden;fontSize=11;" vertex="1" parent="41">
          <mxGeometry width="36" height="21" as="geometry" />
        </mxCell>
        <mxCell id="43" value="portfolioId" style="shape=partialRectangle;connectable=0;fillColor=none;top=0;left=0;bottom=0;right=0;align=left;spacingLeft=2;overflow=hidden;fontSize=11;" vertex="1" parent="41">
          <mxGeometry width="66" height="21" as="geometry" />
        </mxCell>
        <mxCell id="44" value="belongs_to" style="curved=1;startArrow=ERmandOne;startSize=10;;endArrow=ERzeroToOne;endSize=10;;exitX=0.62;exitY=1;entryX=0.5;entryY=0;" edge="1" parent="1" source="2" target="12">
          <mxGeometry relative="1" as="geometry">
            <Array as="points">
              <mxPoint x="220" y="160" />
            </Array>
          </mxGeometry>
        </mxCell>
        <mxCell id="45" value="has_access" style="curved=1;startArrow=ERmandOne;startSize=10;;endArrow=ERzeroToOne;endSize=10;;exitX=1;exitY=0.69;entryX=0.5;entryY=0;" edge="1" parent="1" source="2" target="19">
          <mxGeometry relative="1" as="geometry">
            <Array as="points">
              <mxPoint x="473" y="160" />
            </Array>
          </mxGeometry>
        </mxCell>
        <mxCell id="46" value="manages" style="curved=1;startArrow=ERmandOne;startSize=10;;endArrow=ERzeroToOne;endSize=10;;exitX=0;exitY=0.85;entryX=0.42;entryY=0;" edge="1" parent="1" source="2" target="40">
          <mxGeometry relative="1" as="geometry">
            <Array as="points">
              <mxPoint x="45" y="160" />
              <mxPoint x="45" y="328" />
            </Array>
          </mxGeometry>
        </mxCell>
        <mxCell id="47" value="manages" style="curved=1;startArrow=ERmandOne;startSize=10;;endArrow=ERzeroToOne;endSize=10;;exitX=1;exitY=0.72;entryX=0.31;entryY=0;" edge="1" parent="1" source="12" target="26">
          <mxGeometry relative="1" as="geometry">
            <Array as="points">
              <mxPoint x="499" y="328" />
            </Array>
          </mxGeometry>
        </mxCell>
        <mxCell id="48" value="has_access" style="curved=1;startArrow=ERmandOne;startSize=10;;endArrow=ERzeroToOne;endSize=10;;exitX=0;exitY=0.71;entryX=0;entryY=0.33;" edge="1" parent="1" source="12" target="33">
          <mxGeometry relative="1" as="geometry">
            <Array as="points">
              <mxPoint x="-80" y="328" />
              <mxPoint x="-80" y="496" />
            </Array>
          </mxGeometry>
        </mxCell>
        <mxCell id="49" value="belongs_to" style="curved=1;startArrow=ERmandOne;startSize=10;;endArrow=ERzeroToOne;endSize=10;;exitX=0.4;exitY=1;entryX=0.83;entryY=0;" edge="1" parent="1" source="12" target="40">
          <mxGeometry relative="1" as="geometry">
            <Array as="points">
              <mxPoint x="195" y="328" />
            </Array>
          </mxGeometry>
        </mxCell>
        <mxCell id="50" value="contains" style="curved=1;startArrow=ERmandOne;startSize=10;;endArrow=ERzeroToOne;endSize=10;;exitX=0.95;exitY=1;entryX=0.7;entryY=0;" edge="1" parent="1" source="19" target="26">
          <mxGeometry relative="1" as="geometry">
            <Array as="points">
              <mxPoint x="599" y="328" />
            </Array>
          </mxGeometry>
        </mxCell>
        <mxCell id="51" value="contains" style="curved=1;startArrow=ERmandOne;startSize=10;;endArrow=ERzeroToOne;endSize=10;;exitX=0.14;exitY=1;entryX=0.69;entryY=0;" edge="1" parent="1" source="19" target="33">
          <mxGeometry relative="1" as="geometry">
            <Array as="points">
              <mxPoint x="373" y="328" />
              <mxPoint x="373" y="496" />
            </Array>
          </mxGeometry>
        </mxCell>
        <mxCell id="52" value="uses" style="curved=1;startArrow=ERmandOne;startSize=10;;endArrow=ERzeroToOne;endSize=10;;exitX=0.5;exitY=1;entryX=0.99;entryY=0.2;" edge="1" parent="1" source="26" target="33">
          <mxGeometry relative="1" as="geometry">
            <Array as="points">
              <mxPoint x="549" y="496" />
            </Array>
          </mxGeometry>
        </mxCell>
      </root>
    </mxGraphModel>
  </diagram>
</mxfile>
